<?xml version="1.0" standalone="no"?>
<!DOCTYPE svg PUBLIC "-//W3C//DTD SVG 20010904//EN"
 "http://www.w3.org/TR/2001/REC-SVG-20010904/DTD/svg10.dtd">
<svg version="1.0" xmlns="http://www.w3.org/2000/svg"
 width="225.000000pt" height="225.000000pt" viewBox="0 0 225.000000 225.000000"
 preserveAspectRatio="xMidYMid meet">

<g transform="translate(0.000000,225.000000) scale(0.100000,-0.100000)"
fill="rgb(240, 164, 177)" stroke="none">
<path d="M1058 2193 c-3 -55 -4 -58 -34 -66 -60 -17 -127 -78 -163 -150 l-34
-67 -44 0 -43 0 0 -65 0 -65 45 0 45 0 0 -150 0 -150 -45 0 -44 0 -3 -132 -3
-133 -367 -3 -368 -2 0 -605 0 -605 1125 0 1125 0 0 605 0 605 -367 2 -368 3
-3 133 -3 132 -44 0 -45 0 0 150 0 150 45 0 45 0 0 65 0 65 -43 0 -44 0 -34
67 c-36 72 -103 133 -163 150 -30 8 -31 11 -34 66 l-3 57 -64 0 -64 0 -3 -57z
m141 -198 c16 -8 41 -29 56 -47 l28 -33 -82 -3 c-45 -2 -116 -2 -157 0 l-76 3
23 29 c49 63 142 86 208 51z m91 -349 l0 -135 -50 22 -50 22 0 63 0 62 -65 0
-65 0 0 -62 0 -63 -50 -22 -50 -22 0 135 0 134 165 0 165 0 0 -134z m-66 -250
c36 -19 86 -38 111 -41 l45 -7 0 -69 0 -69 -255 0 -255 0 0 68 0 68 58 12 c31
7 80 26 107 42 67 40 108 39 189 -4z m-484 -521 l0 -205 -59 0 -58 0 -5 73
c-9 137 -68 202 -183 202 -115 0 -174 -65 -183 -202 l-5 -73 -58 0 -59 0 0
205 0 205 305 0 305 0 0 -205z m640 0 l0 -205 -95 0 -95 0 0 110 0 110 -65 0
-65 0 0 -110 0 -110 -95 0 -95 0 0 205 0 205 255 0 255 0 0 -205z m740 0 l0
-205 -59 0 -58 0 -5 73 c-9 137 -68 202 -183 202 -115 0 -174 -65 -183 -202
l-5 -73 -58 0 -59 0 0 205 0 205 305 0 305 0 0 -205z m-1645 -79 c11 -16 15
-41 13 -73 l-3 -48 -50 0 -50 0 -3 48 c-4 59 17 97 53 97 15 0 31 -9 40 -24z
m1380 0 c11 -16 15 -41 13 -73 l-3 -48 -50 0 -50 0 -3 48 c-4 59 17 97 53 97
15 0 31 -9 40 -24z m-1115 -461 l0 -205 -59 0 -58 0 -5 73 c-9 133 -71 202
-183 202 -112 0 -174 -69 -183 -202 l-5 -73 -58 0 -59 0 0 205 0 205 305 0
305 0 0 -205z m640 0 l0 -205 -95 0 -95 0 0 105 0 105 -65 0 -65 0 0 -105 0
-105 -95 0 -95 0 0 205 0 205 255 0 255 0 0 -205z m740 0 l0 -205 -59 0 -58 0
-5 73 c-9 133 -71 202 -183 202 -112 0 -174 -69 -183 -202 l-5 -73 -58 0 -59
0 0 205 0 205 305 0 305 0 0 -205z m-1646 -77 c10 -14 16 -44 16 -75 l0 -53
-55 0 -55 0 0 53 c0 61 20 97 55 97 13 0 31 -10 39 -22z m1380 0 c10 -14 16
-44 16 -75 l0 -53 -55 0 -55 0 0 53 c0 61 20 97 55 97 13 0 31 -10 39 -22z"/>
</g>
</svg>